<mxfile host="Electron" modified="2024-05-12T06:02:26.328Z" agent="Mozilla/5.0 (Windows NT 10.0; Win64; x64) AppleWebKit/537.36 (KHTML, like Gecko) draw.io/24.2.5 Chrome/120.0.6099.109 Electron/28.1.0 Safari/537.36" etag="kOms9kYK2O5JqzvVQocB" version="24.2.5" type="device">
  <diagram name="第1頁" id="aYh_KZzIGKkj3gjwGrvn">
    <mxGraphModel dx="1434" dy="844" grid="0" gridSize="10" guides="1" tooltips="1" connect="1" arrows="1" fold="1" page="1" pageScale="1" pageWidth="827" pageHeight="1169" math="0" shadow="0">
      <root>
        <mxCell id="0" />
        <mxCell id="1" parent="0" />
        <mxCell id="jVYZQ9XUGX3qQfUgJTLz-27" style="edgeStyle=orthogonalEdgeStyle;rounded=0;orthogonalLoop=1;jettySize=auto;html=1;" parent="1" source="jVYZQ9XUGX3qQfUgJTLz-1" target="jVYZQ9XUGX3qQfUgJTLz-2" edge="1">
          <mxGeometry relative="1" as="geometry" />
        </mxCell>
        <UserObject label="題目:想像你站在Tree的右邊，回傳你看得到的node的value" link="https://www.notion.so/7232d645de734dde8dcb7c9f48a1ab0c?p=bbffcadc752c440fb0613f4c22ba3a90&amp;pm=s" id="jVYZQ9XUGX3qQfUgJTLz-1">
          <mxCell style="rounded=1;whiteSpace=wrap;html=1;flipH=0;flipV=1;" parent="1" vertex="1">
            <mxGeometry x="232" y="20" width="342" height="41" as="geometry" />
          </mxCell>
        </UserObject>
        <mxCell id="jVYZQ9XUGX3qQfUgJTLz-28" style="edgeStyle=orthogonalEdgeStyle;rounded=0;orthogonalLoop=1;jettySize=auto;html=1;" parent="1" source="jVYZQ9XUGX3qQfUgJTLz-2" target="jVYZQ9XUGX3qQfUgJTLz-3" edge="1">
          <mxGeometry relative="1" as="geometry" />
        </mxCell>
        <mxCell id="jVYZQ9XUGX3qQfUgJTLz-2" value="怎麼看到右邊的node" style="rounded=1;whiteSpace=wrap;html=1;flipH=0;flipV=1;" parent="1" vertex="1">
          <mxGeometry x="323" y="98" width="160" height="41" as="geometry" />
        </mxCell>
        <mxCell id="jVYZQ9XUGX3qQfUgJTLz-30" style="edgeStyle=orthogonalEdgeStyle;rounded=0;orthogonalLoop=1;jettySize=auto;html=1;" parent="1" source="jVYZQ9XUGX3qQfUgJTLz-3" target="jVYZQ9XUGX3qQfUgJTLz-5" edge="1">
          <mxGeometry relative="1" as="geometry">
            <Array as="points">
              <mxPoint x="547" y="188" />
            </Array>
          </mxGeometry>
        </mxCell>
        <mxCell id="jVYZQ9XUGX3qQfUgJTLz-31" style="edgeStyle=orthogonalEdgeStyle;rounded=0;orthogonalLoop=1;jettySize=auto;html=1;" parent="1" source="jVYZQ9XUGX3qQfUgJTLz-3" target="jVYZQ9XUGX3qQfUgJTLz-4" edge="1">
          <mxGeometry relative="1" as="geometry" />
        </mxCell>
        <mxCell id="jVYZQ9XUGX3qQfUgJTLz-3" value="BFS" style="rounded=1;whiteSpace=wrap;html=1;flipH=0;flipV=1;" parent="1" vertex="1">
          <mxGeometry x="364" y="176" width="78" height="41" as="geometry" />
        </mxCell>
        <mxCell id="jVYZQ9XUGX3qQfUgJTLz-51" style="edgeStyle=orthogonalEdgeStyle;rounded=0;orthogonalLoop=1;jettySize=auto;html=1;entryX=0.5;entryY=0;entryDx=0;entryDy=0;" parent="1" source="jVYZQ9XUGX3qQfUgJTLz-4" target="jVYZQ9XUGX3qQfUgJTLz-37" edge="1">
          <mxGeometry relative="1" as="geometry" />
        </mxCell>
        <mxCell id="jVYZQ9XUGX3qQfUgJTLz-52" style="edgeStyle=orthogonalEdgeStyle;rounded=0;orthogonalLoop=1;jettySize=auto;html=1;" parent="1" source="jVYZQ9XUGX3qQfUgJTLz-4" target="jVYZQ9XUGX3qQfUgJTLz-38" edge="1">
          <mxGeometry relative="1" as="geometry" />
        </mxCell>
        <UserObject label="用queue紀錄，每一層的node，回傳最左邊的node的Values" link="https://www.notion.so/7232d645de734dde8dcb7c9f48a1ab0c?p=5c364d9000704877ae42a2daf3fe5e2c&amp;pm=s" id="jVYZQ9XUGX3qQfUgJTLz-4">
          <mxCell style="rounded=1;whiteSpace=wrap;html=1;" parent="1" vertex="1">
            <mxGeometry x="90" y="221" width="179" height="41" as="geometry" />
          </mxCell>
        </UserObject>
        <mxCell id="jVYZQ9XUGX3qQfUgJTLz-5" value="用PostOrder的方式，得到每個最右邊?" style="rounded=1;whiteSpace=wrap;html=1;" parent="1" vertex="1">
          <mxGeometry x="424" y="242" width="245" height="41" as="geometry" />
        </mxCell>
        <mxCell id="jVYZQ9XUGX3qQfUgJTLz-36" value="" style="shape=image;verticalLabelPosition=bottom;labelBackgroundColor=default;verticalAlign=top;aspect=fixed;imageAspect=0;image=data:image/png,iVBORw0KGgoAAAANSUhEUgAAAWUAAAEjCAYAAADqhBDKAAAAAXNSR0IArs4c6QAAAARnQU1BAACxjwv8YQUAAAAJcEhZcwAADsMAAA7DAcdvqGQAADqZSURBVHhe7Z0LfFXVne9/ECA8gwHDyyBIBCTII4BKoBXUGrAVoXWwHSfQ3oJ3rqC9Bj8zotOK2LkWOyPptQVnKkxn4OhtTWkRdAqpVtBC8AEoYEAgyCMaJEAgPMPLu37r7J3sczhJTnJOYAd/Xz6bs/far3V29vnu//6vtc9pcuLEiS8hhBDCFzR1XoUQQvgASVkIIXyEpCyEED5CUhZCCB8hKQshhI+QlIUQwkdIykII4SMkZSGE8BGSshBC+IgGeaKvuLgYf/jDH+zA8dTUVFt+yy234Dvf+Y59FUIIcTFxlTIFPHPmTKxbt85OuzLmq1tGOB0IBCrnCyGECBK39MW7776L0aNHW/kOHz4cL730ElatWmUHCnjnzp12nPMo7+zsbLvOlUcRAn8/AkPvmY1V5U6REEJESVykTMn+3d/9nR3/0Y9+ZCXspiiWLFmC559/3o67ETKX4TqPPfaYfa2dfMzu3Ru9w4aht92H6c8tR1GFs5gQQjRy4pK+YNTLCJnRcXi+mNEzYZTshbKmlBk5U9Q1QylPR2BwFrIHdnLKKnBg4yrkby5FUr9p+NUfc5CZ4My6BJSvWYinfpOH9vetwKwsp1AIIWIk5kiZKQg3ZVGXBrx7773XrsN1o05jpI/HrJ/McoZnMO8Pb+HVRzOBrfPxHy9FE3HHj9Ktq7F8dZEzJYQQ8SFmKbOHBZkzZ459rQvuOu426k4i0h/IxhgztqqoMFgkhBCNmLhEyqQ+PSncdWJq8EugmsNxctCz8p1pL5HmFWHhJFM2aSGKzhcj/7npGD8imLceMeYBzP6TJwrfvhCTTfnYZwvsZGB6cLnevWebLRNnW5XTxLP9ikLk/XgybruZy4zA+H8IoNDmxMuxcdETmHzbULu9obdNDt2vl9ICBH78AMY6dWRufcaCApSed+YLIRotMUuZDXVMQ9RGdQ160axbI8UHwC2ntmkXnI6Jcqx6ejrmbe+Eex6di2cem4jrj61C4EdTMWeNs0iX0fhh7lzM+m66nRz9v+Zirpmem3sPgiU1UYzA30/HcozCtCdnYdrtKSheOhuTfpyHggUPYepLpch44CnMnT0NQ1oY8Xr361JmLirZk5G7pgJDfviM2e8sTBnWEuuenYxJT+ebdyCEaMzEpfdFTfBhEQqZjYFuLwwvnBddD4wInC9F/osBrErORPaETKcwBtbNRx6mY/G/G9HdOw4Tpz6DRfOnIcNEunlLlweFl5SG0XePQ2bP9naV1AHjMM5Mj7s7A7XeK6wLoGj4PCz65ymYeHc2cv59MZ6akITypSZC/vXVeOq3LyLnfrOt+3Pw4rPOfvO9Eb2R+o8fR6BTDhavWIRnpk40+83GtH9ZhAWPZqLo5Z9hfrjEhRCNipilzEi3Jqmy+9uzzz5rxyll9rjwwnWjTn0UvorZP53tDDMw+RtjMf3PnYyUfoUpfZxlYmIcpj+ahSRnyjJ4NDL7mRi6eJ+NyGPDiP5+bzydhFEjR9mx9PsnYVyyHQ3i7nfXPqNmh83LsMw4OnvSNKSH5WzSJ2Qhy9Rww2bl1oVozMQs5WuuucaKtaa8MHtauP2T2RXOlbi7TtS9Nj7MR2BRwBmWY1+PKVj0xiLkjArRaP0Zdj3SLtpUEpIYFH9QGruUI2w/qXUw4u7fN8O+VuHs10Pp5o+x0cTrVXlsz/D1YA57Y0nslw4hxOUjZikzPUF++ctf2tfqYDRMKfPJPjcydtdxt1Er98/Djh07sGPbFqyYMxFJhbl4aNpCFMargatZYoRGwzhSw/YTo+hjXX7ymPk/HRN/4uaxIwzjas9sCyH8S8xSZpTr9jdmFBwtXLY+/ZstCYlIu/cZzH0wE1gzH3N+89W4ZQ+KuxiJqW4eO8IwrO69YIQQ/iEuDX3sb8zol5FvpMa8cNyn+cjDDz9sX+tD2v+YhWkjgYJfz8HCrU6hpR0Se5iXPRHywNs9OdoYiCayjTepfdKRinJs2LTRKRFCXGnERcoUsvuoNKXMR6sj5ZiZS2YvDAqZ60R6LLtupGHKY1OQWVaA+c8u9Mi2P/ozRbtmNZaFyLoc+YsCCPYwjo3Ua9Ls69GTl7AT2vBRGNMLKHw5N+wiZGBPlN/kxaExUghxOYmLlIkrZrc3Br+giHLmQBFff/31ld8i5y4bm5Ad+k1DzvQMlK+Zj9m/cbWchFF3ZRtlFyB3ymQ8sSAPy5csxBOTxmJuwmjE5asq0tMw2rwsf+FxzF+yHIGfzkfot3s0AAmZmPZoNtLN+5rz/fF44KcLkfea2fc8pyfKX8qh72YSonETNykTV7b88iH2uOA0Be2KmA197ld6cjpeZDycgym9ylHwwlwEnFAx6fZZWPB8Nka324m8Z5/AjOfyUNrnKSx4MhPuVxrFRGo2ZpntZ55Zh9yZMzB/Y6QnC+NPUtYsvPLbucgeCOxcPgdP5MxA7u+LkDgyB4vmTjEXIiFEY6ZBfnlECCFE/YhrpCyEECI2JGUhhPARkrIQQvgISVkIIXyEpCyEED5CUhZCCB8hKQshhI+QlIUQwkdIykII4SMkZSGE8BGSshBC+AhJWQghfISkLIQQPkJSFkIIHyEpCyGEj5CUhRDCR0jKQgjhIyRlIYTwEZKyEEL4CElZCCF8hKQshBA+QlIWQggfISkLIYSPkJSFEMJHSMpCCOEjJGUhhPARkrIQQvgISVkIIXyEpCyEED5CUhZCCB/RoFIu3ZyH2ZNGoHfvyVi43SmsgdJ1AcyePhljR/Q265hhxFhMnj4bgXWlzhJCCHFl0+TEiRNfOuPxoaIchavzEFi8EHmVMs3EzNcXYUofZzKc86XIf2YqHl9UiHKnKJQkpE/+GRY8kYWUBKdICCGuQOIo5UIsnDoDC1cX4eK4tmYpFy0w0fGzBcGJ5HSM/u5E3NO3PY5+sgx5v1uFwrLgrMzHVmDR1LTghBBCXIHEMX1RjOJKIZvI9u4so+IoOJ+PwK8dISMVE2cvxouPZmPc3eOQ/eiLWDx7oikNUvDrAPLPOxNCCHEFEt+ccmoGsibPxLzX1+LV3PGIKqYt2ociJxJGjzEYd1eSMxEk6a5xGNPDmSgrwr4iZ1wIIa5A4ijlLMx66xXM+8kUZPVJdMqiwLto60S0dEaraInE1s4oqcOmhRCisRH/hr5K8jG793QE7HhNOeVCzJ84HrkfcjwDOX94BdMG2BlBPszFfRPnYyPHB+fg1bxpSLczamBjAE/+cTv6fPtpTGj2Ohb/6V2UHDflLZIxcPwD+JsBbYGDG/D7JW9g02ecAbTtMRITvjsGfcwsL6WbX8fSP3+EfUdO2+lmrVPQ565sfG9Qsp0WQoh44oN+yunIfjDbSXVsxMJ/egJ52yvsVMX2PMx4zBGyWYLL1SpkD6cKA3j+9V1IGfYtjBnRB8nnyrApbz5e3bwBgV8vxa6WgzDm7jEYmdYWx/esQWDRariZFFKS/0v8Mu9dlLbohZFZ38K3Rt+Cri1KUVISFLQQQsQbH0TKQcpX5+Khx+ejIFKX5JRMTPvZr5AzKjTfXC1OpAwj0wmP/ABD3Oi36FX8/L/Wg7Fx22E/wD/e0ytYbkrWLPw5Vu5JxsgHczCmK8t24dU5/4n1LW7BgzO+BVtkOYfj5efQNuniRIsQQsSKDyJlUoHig8bGiZGlm5QIlO4pqqYPc/W0HHhrlZBJ2gD0tfnp7ibydYVM2mJov+7mtQyl+4MllZw5hWMXnHFLMwlZCNFg+EDK5cifNR7jZ+ahoLgcSf3GISf3Fax4ZwVeyZ2JicNTUF5cgLyf3of7ZuXXSczdrvGKl7RCS/r0qm7oFebVlq1aOWMuvXDz4BTg5CYEfhHAyo9KcDpEzkIIEX8uv5RXz8fPXnb6uQ3PweI/zsW0uzOQ1iUNGXdPwTP/uQAzRwYj6KKXH8dTr0Wv5WbVvbumzZyRmuk69kE8fHc6kk9ux5olL+CZp3MR+Mt2m/4QQoiG4LJLedXbeSh2xsfdm4308MeoE9Ix5f57ENRyOZavXl3nNEb9aYaUm7+HnB8/iYfvHYk+SWXYviqA5/MKnflCCBFfLrOUi1C0vUqx7VtX05DXMxX9nVHsPxDhMe6Gxsh50BhkP/IgbukAnP54AzY5c4QQIp5cZiknhbTtHT1ZTQy8uxgfO6OXjuM4Hl6dpsm4qp15bdbSaFoIIeLPZZZyCjIzqr4hY/mSAAqDXZSrqCjE/MWBypRFxvDM6B7fjpntWPqvT+Ln//5brPzru3j3vTfx+ovPY+UeU+thI+vUX1oIIaLlsueU0+77IbLdThLrcjFp7GQ8sSAPy19bjrwFs/HAxEnIXefMTx6HSfdfKh1eh/RBXdH8UCHW5L+O119bjY+OtcPAux/Gg2Orei0LIUQ88cfDI3uW44mHn0Le1hqa8HplYdYv5iG7nzMthBBXIJc9Urb0GIdn/rgCr87JwbhR6Uh1v1YiORXpw7OQ/ZNFWLtMQhZCXPk0YKQshBCirvgjUhZCCGGRlIUQwkdIykII4SMkZSGE8BGSshBC+AhJWQghfISkLIQQPkJSFkIIHyEpCyGEj5CUhRDCR0jKQgjhIyRlIYTwEZKyEEL4CElZCCF8hKQsYqAEK3/xJJ580gy/WGmmRLRsWGyO2eINzpT/8Hv9rmTiI+X82ejdu/dFw+x8Z34jpGjB5OD7mLQQRU6ZpawQec9Nx323DQ3OHzEWD/w4gI1lzvzqOF+MVQuewANjRgTXu/k23Dc9F/l7nPlhVOxajtzp9+G2m4PHcuht4/HEEs/veJdtxMJ/GI8Rtg7jMWPBxsrfMXQpXzoDQyfmYuN5pyCuUMgvYE3HCXj66afx9CNj8JX/kaySlcg1F6jARme6gShZkRu8EIYNDb1fcWmIY6TMn3zagR07gsOKxzIRmN6QYubPTTXQ9suWY96vC5wJL8VYmGPk+G9GgKnDMXHCaKQZZa/63WxMzVmIwhrkt+qZ8Xjg2ZXYmdgf476bhYw25diYPx/T/+ds5IcJvdxc5O773gzMzzeXgx5ZmDh5HIa0KEVxmavdYgR+PBVzdg/B48tW4JWH0lD47FQ89ZpHy2X5mPOrQkx8JAcZCU5ZPCnZhMLDQJ8bhzgFIiJW1LlYGffbiD6YwIuhO3y7D7b/8UnkrqjjjhqsfqK+NFj6Im3qLMwcDgTWNLZwuRz5z83FciSZf+FUAF2yMXflW1ixeB6e+ZcXseL1eZjYw6y1JoBl7g+8RuBM6+GYuXgF3lr2Iub+8zy88sZi5Jjjg10BvPonbwS8HE+ZyLvQXORy/rAWb+WZ/fxkLl5cuRYvTnJ+x3vPSuSbw5r9wCyM65eGjPunY+Lwcix/v6oCBS/OxYZRMzFtpFMgGp6uY5BjBJmd4UxfSjKyMaG3OX22bVIaqZGjnHIY5fm5mPs7YOIPs9HfKasiDVP+jxFhr0Rn2pCchdFWfMWoOGFLIpL1yDxMGZ7iTBkS0jFmVKYdPXayKsItfHkxlpvIefRDz2DaAM9+DInupLk2wNQutaedMqShu/uL4OTDXOTmD8GMh0ZHuLCIK5UhN/YBDpdKyo2cZs5rA1CEYhO4ZY5yojsP+bN6Y/rLzoQhe94OzMpyJizeX8J2uH8edswOLhSy/vTeweUq5xdh4aSxmOOJWjMfW4FFUy+ux0UUB/C4iVJLJ8zFzNsP4KHnnHIvF6UCSnHgIF+N/mo6mhFSCAcO7wuOJLi23YiVK5kYzMKorNRgUbXsQyk/ffYXwouwb5epQZ8WwPlCzH8ugNSH3kKW+wO0dcLJFR92JknvCXh6UlWago1AS3cEx8vMLfOTfzTV+HbkCJH5zxfWpphb7WyEJDo2Bsx6pRj5YA7GuMloW7bdmSC8RfeutwGBJ5eiaonI82Hqkr7FqWNl3cPXrb7OEevmHheMxIPe/LldFsF6MBXwwhqk2O2GHsc1Lzxp1jXX8BEPImesJ/vurONmsC6aX0/s3+hQWF0tweNQOmIi0rflxal+tZ8z3r/NHV/wnKjcYthxFg0WKefPMlIdPhOzQmRIYRqh7pqJFU7uece87Ityz0ULjGaNqN389I7XZyLz5emYvCDY5JY1m+XzkG3GKXS7jFfIvYygPetGoWMrs4U/zkV+cjZ+9sS4qCPM8vz5CLDuPSZi1KhgWVRsXYgXfl9sRkYj605HwOXF2LfVvPbojk7FCzHjO06jIBsTf5qPYjdn3Wc0Rg0vRt5vclGwqxSFS+Yhb10aJt4+GkWL5iCQlIMZE+oRI9v8oqfxzg4T0GfH0pDeFUMmmfIHR5qPU1BsXC7mW/ZKEbr7fdrejldi60aZPOiZvx1LnwyYj3sopatzUXijsx2PkL3rMgdbLRnpRvdlKPzIG3OWoJTSOVyITZ7iDVuM5nunh15wLF0x5hGzH3ucKJ7gfkOExuNq7sq+56lT2doX6t1gZ+vSIcVKOBg1h9aVlKxYbS5MfTBq7ID41C/Kc8aFee/f4nuVy07oXWYuCBf/Db/KxFHKBZjzrWBPAQ7TX87EzJ9MCRVifsBEsGHlWbMw734gsLiql0Pa1EWhkXOfKcg2yxTsC+kHEYFgdJ490rOyWTf0whCJcuQ/PQNz1qQg+9GcqCPM8g9y8ZCJrIvMu8n+x2kYHW2D2p7lmPHIHBSUJZkoPgfZblC8/wBs0I1VmDvNHI+uo5E9IROp54qwatF0TH063+lhkYYpc180F6VleGjMCEz61UFkPr8AM3sEYIox5X9PRPmiGRg/gn+LobjtB7lYFdaYGIkNb5iI6KIIZwiy+cE9vAZvNmDrfskXpUYo6RjoccKQSVVRsK1bh5H4nkcaQyaZD79RzOqwxq2yjqNCLxIlpeZ+Jhnpgzwbz8iu4UIyBOnh+dmNhdjeoQ/6dChD6X6nzKik0ETj9W/sNJG+N5LNuAMjOxhxbam7onhHsnSHket3ne3ZbRnhveHdVgk2bTMnQsSLSCRqr1+dzxmzrFf8Q77Bi8J2FDbgudXYaLDeFzteH4XVlPSsqhA4f42JgO/PxpSwICWteyawrrhSykGCUXWV5E3Rrn1hy4SThlQ2Lk6fjIXe+9RaKFzwEB5/udQIcq65GEQXYRYvfQKTps03Yk0zkXv065V/MB8P/O0MLN+VhIwHnsOvpqY7czzsMUfzn1fg1XnPYNa/LMJb/5Vjjq45Ii+/imWuEFJGI+c/38J6c6zXv2UuYnclYfn/zcWxyTMxcfccTP9pIdIefRVrl81ERsl8PDorz4ipJmoQTNeBSK+nLKKla+cUE9mtwQsR+8Y6dRsVfiveFSmmXmU2j1NFckroUuiaghQT+dYlIgvPzzIKTb7hDqR39BwHR/YpXYKTdeYiOZr3Y7aPQ9HkhXmXUNUdLpgi8qYBumLgDSa62FFY9Z5tjxkj7m9EeRGptX51P2cuWtb+bczdzRe1v+OvCg3X0Gci1EXzsoGXA44gg3lPvDy9UrTuMPbZ0O5nzBn37j0Wq0etqJQ8o+naMRHkYi5bFbW7KY/qyUee2X+5+Vfw7Piqen3LRLKcvW4OxnK68uJSgcJ/m4zx/5CHQmRgyoJXzP4iiDUCpX+ajfv+1kStpRT5Yrzyj2ENcW5qud8Y3OOVvJkexZ4apq5Fm2zJRZT/aQ7m7s5GzgPpWPd2AMVZ2Xj83nSk9JuIx7+fZeYXYF14R2YvVjCXERO52ltp3vZa0XgE6tSNt76uhIJDWB7TIaVzmJQZuT39oInyqkRWa4rApjDcCI7yCUbaVtaO6Eo+KjTRe2h0f+kI6xIXnrM3dB2UHhKFxr2+l/ucuUJp2N4XPVNthBfE6SHABjk3mg4ZZsEmHfJnB1MfJuqOqnEuAsGcsxnMRaHg2bEh0frFtEDigHSkhw/9UoPCTE4NTrdpYZcufnkGJj1nJN5rHObmvYKZo6KLkLFmDib9KICi5ExM+3/ViLyH2U8P87q/HKUR+zynIrGNM+rlfAHm/2IDRj84BRkJ5uLHB1Ku7mQjEJJixoGDOFB52x0BJ2KJNzYCjhanS9nTlQJ1+s86dXPz1xcNIbfO1eHkeM3yD44wqqq1T28wCreRnk1dODKzsjYyKgmmApJvGGiW9CnmeI7q7UarDVDfBjpnvuo0rJR3FwejTQebpni5wMR7dSUfBZ7eGlGTNcs+xFJz2mM0Zv7hVbwaPvyr0yWubzbmctpEtTi/CoH/YF43Ezm/mItxFGhUFCOwiDnzVEyc/SvkDKtO5JkYdZe5EJUtQ+A3hU6ZYetKrGZvkuTRGGIj5lA2/tLI66YZyLmd201BJ95On6xw8s8mQj94wKxrLoo1XuM8Egon5gdFKDFn1ME2SlULBcp8sZu/raFu9aDr2Jxgn97wSoXg3P6bW/WVNnXhyox1YSPgJpQeDstT+5DKyH7jm+augg188axvQ54zX10aTsrbF2Ly9NAcctrUbGQjgOnhjy6b6Liy94WNrguw+u2qJWxPDme8Cid/HPJwSj5mh0TFRVi12lwWenU3S8eBdeuw0j4WvRPL/mk8xn8nbPj5KrsYyldh9j1D0XvEAwjQPftXoeAvdgYKXph08Xo5AaPtIJk/nIHsXkylTMJtP5iBJ/io9fdzzRFJQdajU5AV3pi4dT5yX07FjEeznFRIEkaNHIekpfPw1JJClG7Nw8/+Kx9pf5N18bohGBF+10kfhOR1NyDALlG9J9Svh4XTk2HN7zwt8RsDlV3qXEpWBEKfKmN0WpmvNXUbRbksvSi63bA4ijxxyUoEQtYL5kIvyj2HYW//Dxei8JBXvkFZl20zxzaaVICTzw7tyXEJcdIwq1eXRm7gi6l+DXTOfMWJo5RDe18wJ5vG7mpO3+IgWZi1YwVmwsnTusPiVGS7izm5aJt2cOYXjIyUU07DlEnMWTs5alfGITlrp3tcSB1i4ESFI89SFG02H9bw4cQZO/ciyitwLDiC4q0R1jtYEXwehCSbYxRYhJkTzGWkcDny7KPW4zBz8auY993wvstFWPhsAO0emYFxnh4jSROewoJH0lD43HiM+P58FA+chbmPViWSqsWmD5zuTJV5W6crWVQpgkhUtcS/4G5zS3qELmmltq9s5X7D+wk7OWesfaFqGTOsTrnjYtFEoDRkveB7uri/bRi2sarMKCtUvkFZm/KOwe5nNTMEd4wwEnf2X+fHoGPG2b+pb+SoNcb6Ncg589WmyYkTJ750xoUQVyD2AZ5t6REeJBF+pGFzykKIy8wGvLnW5w2SIgRJWYgrmKon+KTkxoLSF0JcgQS/c4SPcYZ/P4jwO5KyEEL4CKUvhBDCR0jKQgjhIyRlIYTwEZKyEEL4CElZCCF8hKQshBA+QlIWQggfISkLIYSPkJSFEMJHSMpCCOEjJGUhhPARkrIQQvgISVkIIXyEpCyEED5CUhZCCB8hKQshhI+QlIUQwkc0bd68ORISEtCkSROnSAghxOWiyZcGZ1wIIcRlRukLIYTwEZKyEEL4CElZCCF8hKQshBA+QlIWQggfISkLIYSPkJSFEMJHSMpCCOEjJGUhhPARkrIQQvgISVkIIXyEpCyEED5CUhZCCB8hKQshhI+QlIUQwkdIykII4SMkZSGE8BGSshBC+AhJWQghfISkLIQQPkJSFkIIHyEpCyGEj5CUhRDCR0jKQgjhIyRlIYTwEZKyEEL4CElZCCF8hKQshBA+QlIWQggfISkLIYSPkJSFEMJHSMpCCOEjJGUhhPARkrIQQvgISVkIIXyEpCyEED5CUhZCCB8hKQshhI+QlIUQwkdIykII4SMkZSGE8BENIuWlS5fiiy++sON//vOf7UBYxnnHjx+300IIIUKJu5QpXkrXlfKJEyfsQNx57rQQQohQmnxpcMZjZteuXdi0aZMVb9u2bdGmTRsrYnecMua8zp07Iy0tDb169XLWFEIIQeImZQp57dq1VsC14aYv7rzzTivo2jh58iTefvttHDx4EDfddBP69u3rzKke1uf9999H+/btceutt6J169bOHCGE8C8xS9lNRzBCZlScnZ3tzKkersPcMoU8cOBAG0XXJHOvlK+55hqMHDkSLVq0cOZezJkzZ7BmzRp89tlnuPrqqyVlIUSjIeac8htvvGEb8tw0hQvFy2jVO7h5Znc5TnNdbiMaKPEjR47gwIEDTklkOL+8vNxGyUII0ZiIWcqMdDl4hUwBMxJmOsM7uPJ24TpcNzMz0ympmcTERLtOcXExLly44JSGwnLOT0pKQocOHZxSIYRoHCQ8ZXDG60VycrKNYPft24ezZ8/ihhtuQFlZmZ12hc1GPcqUQu7SpYtdh+kOvo4YMSJE6JHgdvfs2YN27drZdfbu3YuOHTtGXI9R8tatW20jItc7deoUevTogebNmztLAOfOncOOHTvw3nvv4d1337XjjKyvuuqqkLRIYWGhvZhQ7p9//jkKCgrsOnwflL7bkMkyDp988gkqKipsyiQhIcHZShX79+/HBx98gPXr12PDhg349NNPbWqG+/XWj2VvvvkmDh8+bN8vc+OsB98L93Ps2DGbxgmHF6P8/Hy7b9ZBCNH4iDlSpqi8/ZK9UNbuEEmgzEVzXW4jWiijZs2a2XxxJFjesmVLKyVKLBxG0h9++CG2bNlil2F+mhcNypzio/DC2blzp73I8IKTnp5uUzMUJe8IKFhKlQ2QKSkp+Pjjj+22vXCfLFu9erWVdv/+/e3FqFOnTnbb77zzTsT9cr2PPvrI7ocXmFatWtk6U9aRuhXyPfBC0bVrV6dECNHYiFnKlEB9cXthuK/RQAFSfrwIMLr1wmk3GmdUHQlKkFHv1772Ndx888247rrrMHjwYAwfPtxKnFGzF8qSQuTy119/PYYMGYJBgwbZcoqZomYZI3Nur1u3brYOXmkyQmYUTfmzxwnX4fJM23DgspR5eEqGdxwsu+eee2wD6o033mhFfvToURw6dMhZKgi3QSnzDoJRvBCicRKXnPKECRNsNBwO5RTeyOeF63BdiipamjZtakV6+vRplJSUOKVBePvO1ATTFU2aNHFKq2CvDEbSlHZ4fZmioNAodi7npXv37iFpDUarlD4vDt40ghuhMxp2o3RKlekW9v7o06ePrb8Xrs/IltFv+MWJ76Vfv34hkuWynKbovVDIFDMvCkKIxkvMUqZsmR/2RoZu9Mxyt5GvqKjIlnkja67DZSjtukB5Un6MeF2BMg9L4VKUjKYjwf1x2L59OwKBQMjw29/+Frt377aypwxdKN/wqJvpE8qV74WNj144zwsFzaia24jULY/bYX1Z/3ApU77h+2YaiHlmbwqD4uffgRcWRtJCiMZLzFJmjwqK1SsURqGMfpk39Q7hD4twHa7LoS5QfKmpqVZMbrRMKTHKZXl4NOpy/vx5O/Tu3dumIyINTBGE94GOFHWT6sq9sBs498lthgvbhbIOvxgQ5pC9DYCE743vkUJmdEx4HHkseKGqqf+2EML/xCxlN/3gytaVM6eZN/UOkZbhutxGXWEKgv2QmRqg0Ji6qC1SpEQ5UGw9e/aMOFB41cmzvnCfjOjDpevCaJpijlaobt6YFyJGyXyohuKP1CNDCNG4iFnKvJ2mXJlbpmzZmyI8NRA+cBnChi9X1HWFUSRzvRQS0x+MFJlLrklsFB/XYzqBIrwUsD5Mc3CfTFGEQ6my0Y71ipTeiASX5UWJDYFs9GMah1FydWkbIUTjIWYpu1A8TFG4knVl7cJxt1scX7kso+dYYKMXG9fYn5hCo6hqgjKjvEpLSytz3F4YbVN08YRRNy8ebi6bEvbCPDhTMKx7XXpN8I6A0TfvFPiUI9evLm0jhGg8xO1TTNFSsoyYCceZmmA5B467EmY3sFiFTCgxyp7pC0opmkiT3dp4+79582b7fRrsIkdZ8mENPtDBNEC8oZTZY4QXAubgt23bZqP7devW2YdBWB/2Xa4LXIfpGjZOsrGxvnccQgh/EffQyu1d4UqCr95xCtrbAyNWmEdl9BttPpW9GfgFReyexqiYYqSg+RQc+xlzW/GGESz7Mt9yyy12P26vFKZc2LDIu4a6NtAxAueFiGkRCjra1IcQwt/E9fuUxaWFD6QwdeNNGwkhGjdKQjZSmE9mAx9TGByEEFcGknIjhUJm+oP56vC+zEKIxovSF40IdqljYyH7PfOVETK/s0NSFuLKQZFyI4MRMnPJbOTjN9NJyEJcWShSFkIIH6FIWQghfISkLIQQPkJSFkIIHyEpCyGEj5CUhRDCR0jKQgjhIyRlIYTwEZKyEEL4CElZCCF8hKQshBA+QlIWQggfISkLIYSPkJSFEMJHSMpCCOEjJGUhhPARkrIQQvgISVkIIXyEpCyEED5CUhZCCB8hKQshhI+QlIUQwkdIykII4SMkZSGE8BGSshBC+AhJWQghfESTLw3OeNw5cOAAtmzZgmPHjmHkyJG4+uqrnTm1E8u6NXHmzBmsWbMGn332mZ0eMmQI0tPT7biXsrIyFBUV2XqwDmfPnkWbNm2QnJyMPn36oGvXrmjSpImztBBCxIe4S/ncuXP4/PPPsWPHDpSUlNiydu3aRSXWWNaNll27duH999+3kiWRpHzw4EErbso4Es2bN8f111+PjIwMNG2qmw0hRPyIm5QrKiqs7ChVRqNeahNrLOvWhVOnTlnZ7t+/3ympXspr1661kXGnTp1sHcrLy+2ForS01C5DMVPKjJqjYc+ePXb9xMREuz++1gSPw9atW22dGZX36NHDmQNs27YNR44ccaaC8OJw1VVX4dprr0XLli2dUiFEYyNuYd758+dx/PhxKxMKKzU11cosGmJZty4wAvcKuTooteHDh+OOO+7AgAED0LNnTwwcOBB33nlnpYQZaTO1wei+LvACxNRIbRw+fNgKuTpcCXfo0MEOLVq0sOtQ5KdPn3aWEkI0NuJ6700x3HDDDcjKysJNN91UazToJZZ1o4EC/fTTT9GqVSsr/Zpo27atjZDDoQgZibZu3dpO82JSlxuNhIQEe9FhJM51q4PzuAyXry49wnnXXXedvUhwGDx4sI2oKX2uK4RonMRNyhTV7bffjmHDhtnGsLo0gsWybjQwcnQbDbt37x5TKoQy5OCO17WuTImcPHmy2nw14TwuU9djweVZp5qEL4TwN1d8K9WFCxeskJmv5m1+3759Y2qcY17YFWpKSgqaNWtmx6PFFSe3EynKZhnnMaJu3769UxodFDnfL8UvhGicXPFS3rdvn21ko+SYHqmr6AhFyYa+9evX20Y2wjQG0wd1hfnqpKQkm0M/ceKEU1oFyziP+WISTdRLETNlwQsPpc+LjxCicXJFS5l55E2bNtkGs7S0NNtgFy2MOlesWIFAIICXXnoJy5Yts41ozHWzx8aIESNsHryuMB3BCJuid3tyeGGZu0xNsKFx48aNWLduHd577z3bp5oiZ1e9WO4EhBCXlyv208sUw4cffoijR4+ic+fONkqOVVaMtjlQ2Ixm6wujdfYuYbc2Nsy5MPfNnhmcz8bGmuB78fa+YF7eexESQjROrkgps2sdo0hKioIbNGhQrZILh1HwjTfeiK997Ws2MmYESvGx2xlTGG+99ZZNi9QHNxJmPb3d45iCYBe72qJkwry0t/cFu+7xwsMImg/IqLFPiMbJFSdl5lcZLe7du9d2f2P/4kjd22qDDXjsOseUBx/2YL/lu+++2/YQ4XaZ+y0sLLS55vrAiwW3w3QFRUyZUvgUf337aDNy5sBIWdGyEI2TK07KFJv7vRYU0zvvvGPzwt5hw4YNdj7huFtOkdcEI1xGpewPTA4dOlTvPsFMgzDtwFQI0xhMs7C+7K7ndrmrD4zwma/mxUkI0fi4YnPKDQVzud4eHLE8Pcc0BSXKNAsH9syItecEUyK8eKixT4jGyRX3yWXvCD4gwvxqdUO3bt2cpWHH3fJo+vcyAvWmLGL5ngnWlekGNkpymx07dqxXjw4XRtwcmBbhIIRofDRqKbMHxKpVq7BkyZLK/sPMx7Jhjrnf6oYuXbrYZQnH3XJKkbld9m3mayT4qDb7AxNGzJRqLDBaZlTrpjOihQ15rMv27dvtsHnzZnsMuC1elGJJgQghLh+NWsrsZVBcXGxzsTt37ozqi36igdt97bXXUFBQYLe7e/du23i4cuVKW8b9UaLs+xxruoHROXuG8IESNvJFCyN2RsXMoXNgnViX/v37220JIRonDfYl92zAevvtt21DGKPXunz9ZrTrUpQcCCNWLscn2mqDvSbcxr7wr+5khMyv7WS0XB1MMXAdDsrdCiHiSaM2Sq9evWy3NeZP2Y84GiHXBiNg9mtmjpkXAjfH66YX2Hf5m9/8pn2VkIUQ8aZBfw5KCCFE3VCoJ4QQPkJSFkIIHyEpCyGEj5CUhRDCR0jKQgjhIyRlIYTwEZKyEEL4CElZCCF8hKQshBA+QlIWQggfcVmkXHr64l9xFkIIcYmkvOf47hARv71/dch04ZFCZ0wIIb7aXBIpl54+iA8OfuBMhUJB7zlev1+FFkKIK41LIuX0q4LfVxweEZ88d9JGzMOuHuaUCCHEV5tL9tWdFDBp3ay1FXFKy5SQMiFq4ty5c9i6dStOnDhhf62lX79+aNasmTNX1IT7U2n8jnA/4vf6XWoaTMpMS1xtxOtGyfFi79699ldJwrn11ltx7bXXOlP+5kvzb2f5Tuwo34FT506haZOm6NSqEwZ1GIS2zdo6SwXhctvLt9vlmjQB2jVvh4wOQ8yxje5XXAi3salsE1o0bYHRXUeH7KP8bDk2HtqIQxWHwFOhdbNWGJA8EKltUp0lgOPnjmP9wQ/sMk2bJOC6ttfhxuQbkWDGXbYd3Ya9x/fg651vRSuzjXjiCpk/NKAPbhD+0O4nn3yCnj172t95rIlYpLdnzx6UlJQ4U1Xwp9Bq22+0SMqhxC19waiX6Qm+ummJrWa6IRrx+BNRY8eORXZ2th34k04UNYXdEPDnqVasWBG37X90+CNsOrwJp8+fxlUtrkKzps2w/2QJ1h1YZ8tcPj6yxS5bcb7CSLgjkpon4djZY1hzYA1KzPLRQJkXHdtphHvBKani6Jmj+OsX7+Dg6YNo27wt2rdIwqnzp7D+0PrK7Z+7cA7vl76HE+ZvmpkyAmntemHXsV1mm0V2Pjl65ogt69v+hrgLmfD4nz592v6wrageinr9+vUhv7YeD3gxzMjIwPDhw+1AIRcVFVlh14WGqt+VRtykXHr6gJXwahMhk7tSv2lfqxMzI+nwxj8u96fiP1mh14XevXvbX3Dev3+/U+JfGG0yoqSIM1MycUe3O/BNc6y6tO5q5cbomZy9cNaIcb+JjpvYqHRUl9H4Rrc7cW2bHkaUZ7HreJUUa4IR7IlzJ8yYCbPD2Hp0q5V2j7Y9kNUty27/ura97PZ3mOj8ghH54TOHTTR9DDcY4XY1daR42xmBf3HqC2cr3M42e3Hp3qa7UyIaGv447k033RS3aLUucJ/8TUzKlXcxIr7ETcopLTs5eeITtYrZ7SIX3lWOy3H9ukq5McHolMJNbpFsJUeYBqAYmRrge2d0yhQHEx1MbTBl4UL5RQuj3b0n9qJLq65okRD8rUEX3s0crjiM5k2b47p21zmlsONMcxw9W25kftyKOcHUwc37c15iQks7TopPFuNIRRn6X5Vu6yq+GvCu5cyZMzh//rxTIuJFwlMGZ7ze8APOaKxn25422uPw+cnP7XTvpN7YaaK/g45oKW53PulhlmnTrI3dBpcjXIZDJI4ePWojYuaP3Z/kr6iosLdTvIKHRw7vvfce3nrrrcpfvuYVvn379s7c4K3xm2++iXXr1lUuw1vla665xs7n+n/961/tcrxd887nL19zHgd3XTY+1RS9lJ0pw/5TJfY9U8QufP+fnfzMSPA8urftjlYJrXDs7HEcOn0IZy6cMZF0F3uMtxzZbKbP2si1JkFz2XdL11npDjCRNrdNerbracXKiH3PiT1WsH2S+tjInVCsFC332blVZ1u270SxzWFzfyzfdazISL45OpkL8YZD63GteR/eHHS0MMr6+OOP8emnn6K4uNgOx48fD/nlcuYb+cvizHeXlZXZZRITE21jXzj8+/A8oDC8jYClpaX2F8yZ9uK6btnmzZsr9/vFF1+ErMdz6qOPPrIpq5rm89ae9du5c2dl3cPXranOkermHpcDBw7Yfbo/0MtleTxYxvOR5xt/2JfrcfnPP/8cFy5csMtxnxQmz3f+KjzhslyH9fXOrwl+3rivTp06hRxTlnEey/nemXf21pW4x4Gv3F886hfNOeP923DbPGZcjnX0Hme/EhcpM+/JxiSSflX/GsVM+bivxJUyb9u94q6LlDdu3GhfBw8ejISEYOOTK0z+Ee+66y6bE+MfmLlnvrpi3rFjhxXs17/+dQwcOBDdunWzHxKePJQr5/GXsnkiDRs2zC7nCnnt2rX2l7S5fXddnhA8OauDOdsSc1zOfHnWis6NQHce22kFnGDk6IqTUmTEzGj3k6PbrAwZRQ/umGGPa3WcN2L/4NAHVupDOg5Fm+ZtsNvclRB32wcrDuKzE5/Zhr2eJjp2G+24LtMrTGuwfqwD60uJU8qsy/5T+9E3qa8VfcX508jokFHnKJm3vlu2bLHHj383/io5j/dnn32GQ4cOVX7A+WHjrfrhw4ftr5f37ds3otxITQI5cuSI3RY/kPxb7t692/bgYH6U++aFlvvheqwbzwHWh79azvksY91YLy5DYVCaFELnzp1tvVwh831x3F3XlUCkenNbrA/fqysgnlsUCF95nrrrU1YUV5cuXex+eJy4DkXDOrD+fJ9sMOP7crdHMbGcx2HAgAH2s8Nt8qLB1+qOJ6numLIuTK2xnK/ch7euhMeL67Iu/GzEWr9ozxn3b8Pt8ti4f4djx45Zd7h/Q78Sl/vNFPPhZdqBD4Hwwz/s6pusVN1URqTURTiukKOBB5cNb4FAwA48gfv372+vjC4s4x/aW84/dp8+fexVlic8SU9Pt+Uu/DB17drVfthqguufOnXKfkBcuC63XxOUXHJiMs6cr7DH5s+f5+O/i//bHLdP7cntpai8CNuPbrfC7GTWoySZ1Pi4bAsOnK7K6YazuWwzvjDiZCTupkjCYVqC6ZHaoMBvMn9Psqpkla1Tf3PhbWMuJpRyv6vSbW566d6lWLJ7iX0/x87W3pDDqIkfGG+LOz+AbB+gIBkVNxT88Lds2bLyok4ofFcorBvnu3dL5Lrrgime8HYLLue9M6IsSXJysn0lnO9dxosrHW9+luMMLnjeutvjK7sD1nTBrwlui+emKyPWj/ulzOoK70j4GezRo4fdHrfF48Dj5sL3wvfBfbjHtSaiqV9dzxlKn3V04YWBwRbr5WfiImVGu/xwVidmijie8A/j7X0xcuRIrFmzxqYaXPjhoVwpSi9t27a1MnWlTDi+evXqSslv3779omXC4UnEKzajdF6Ro4WCzew0AteY2/0m5l/5mWNo1qQZBnUYjObmlREn/x0xdxqUHZcf2Wkkvt7567axj41+TF9sPrzFRs3h8I6FPSE6t+qCAckDnNL60KQy+m1vIuQ7u2Xh3p734p5r70Gvdr3w8ZGP0bWVuXiZaJy9O3g3NMK8rzPnz5gofX3EurnUJBiKkh/w+sgiWrgP7p+33eG4dePF1htNUZKMUnleeOE54MUVEO/AXKHWBo+DNz/L9+6Kzj0O7raiEVwkwuXI98ZzmOe4ezGoDi7D85wpPg4833lnyMiXcFsc53Fz68kLH98TRRgNtdWvPudM+LLcPiNp1s3PxEXKlC77I4eLuXWz6m+L4gnFy/QEo2OeMPxD8sNDubqidYcNGzY4awWhyH/3u9/ZSMaVfG3RLuEJM2rUKCt+N2rnLW80MPocnjIc3+7xbSu6rGuybO733Jfn0TKhpZ1PKVNwSS2S0CGxg7MmbOTL+WyEO3r2qFMahPleRtzs/sYudkv3/NFEr7/HyuIVNs3AgeNvfP5ns43mNlVyIUK0zLKEpgm2LpGg9CvMvvq272tTVEnN29t0BuvGVMhxc6Fh3+bq4AeMEcvlgn9r3iEx2qNk2E3LlYlbN+amXQlx+OCDD6wUwvFG24Qf/EGDBlmBuyJjeqImXLkxguP+GfVRypSKKzpGgdxm+P4uBTzXvV3ihg4detHFgfX1RqHxru/lPmcuJTFLmUJm1zZ2ZfOKmT0p4h0h1wT/+DwJiBvFUq6uaL0Do2wuz5wVRc5pfkjrw80332y3eeutt1rhe6P1urD/5H7byMe7Cza61ZZeYK6Z+V8vjLybG2EnJiSGDC3MwNQIB45zmTbN29oIveLcafP3qoocOM4yip/9osNhAyL7KF/f7npbzzMXKuwFxW0oZAPleaN1b3/rcNyIJd7URQAUIbuUsZ2A5w0bmCgUt27MeboS8g7RPODAKI+5US7Pi3ZtfXrdKJyRHuvAab4X1pHjFDPLOe2N3v0E68Y7WL4HN3URz/o21DnjR2J+l+wKx4iYInbFXF0jXSTcZb15ZuYr64p7u+TCNAUbh+p6q8LluV5dYV6aD7HUlvYgXgmSvcf32vxsy2atKntktG/R3squ/Ey5bZRzYTc3RsQtmiaiXbOqrnKEy4/qMgp3dx8XMtzW9Ta7PAeOc5n2JrpNat7ObuvTY586W4AdZxmj80iPv289shVtnZ4jlHozs09eHIIXkWBDJsvZeFsdXgmFw+PPSDHSbWo0MJpyo16XSPtxoTR48eYHnuvVVLf6wJwmc5vhaQ8vrAMFxvOGUbUrM9aFA+vC1AajUT/jRvZMHfKz6G1viZWGPGf8RsxS5geXH3KvmKPtZ8xcNAlf3i2PFqYseKvozSHz8VPy/vvvh0iS0TEH4kZWbKl1YetueI7Yjby9jTw8ERhdubgfKC7H5WuCT8wt27sMq/avso187x9830qNKQA3Ou2Y2NF2NWOf5rUH1tpGwb+U/AWby4L7ZA6XT8+xUY3HnNs7cLrqfdQG88V8EIRS/fT4LpvS4MBxbrdf+37OklXwgsB99HceseY2urTqgrKKMpv/5vzdRupskPT2rQ6HwqGsmD5wH7EllCJzsYy4qmsYqwnKjHJlVOrmSfk3YYOvF3aPcm+zCccpc0ZjrBtlwnXCo9tdu3ZdJPxwuC1u34XLU1ThuedwKFyKjIMrX1fW3CaFVNudgJtSaMhG0ppgXQk/P5Ea+GKpX0OdM34kLl3iGKFd0/oam1+kmKOlW+tuNlJmzwtvv2WWVwe76PCPwEYaSpEDx3mr6E1BUIz8I7LrDruuucvyw8fleOXlSc6BeT93Pntr8OThh5pPCbrRCj/sTE9wGV6V2RWIAnfXZd9JfpiZzqgNPkDCnPHxs8dslMneGDdfffNFfX3ZU4PHlsszYq64cNpEqe0wuMNg27WNMH2w98Q+K3WuHylCDeaaQ7vEkbbN2+LqxKvtU3t8fJt54o5m+paUW2yk7oXbWH9wvdnHNfapQhfWnbnqomO7sO/kPhNhJ2Nox6GV6Yzq4DHmBZTdmXiRpMh40WPXLnZB9MIPHiMkRpz8sFcHP7i8Q2KfYm6X22T/ZvaioGS5P+6XUvD2c6X02KXNlQr3wXHWy+0zy4FlbjTmdrtiNzBvnVhXdrdz13Pfk7cXQCR4jrFePM/YOObeqvOVkmNDFs85l0jHhO+fwQFTctw368j5bpAR3ujNcn4eKDN3f+FU1yUuEu7+eax5zMP/VrHWL9pzprq/jVvOzzz361fi+oVEvC1nRBeNmCnjW02ETdwvvWe0za/xrEv6QwjhH3h3wYucvsWv/sQ1c+5NZdQE57tCZh9mN30hIQvReGH0zuiWdxQScv1pkK/uZMTM22X2wPBCGbOByP06T8qYPTdYRhlLyEI0XhglU8p8gs7NH4u60+Bfck9BB7+lrKqnhQulLBEL0bihjJknZjuOhBw7DS5lIYQQ0RPXnLIQQojYkJSFEMJHSMpCCOEjJGUhhPARkrIQQvgISVkIIXyEpCyEED5CUhZCCB8hKQshhI+QlIUQwkdIykII4SMkZSGE8BGSshBC+AhJWQghfISkLIQQPkJSFkIIHyEpCyGEbwD+P2/HO+JaY/HVAAAAAElFTkSuQmCC;" parent="1" vertex="1">
          <mxGeometry x="22.990000000000002" y="408" width="150.89" height="123" as="geometry" />
        </mxCell>
        <mxCell id="jVYZQ9XUGX3qQfUgJTLz-53" style="edgeStyle=orthogonalEdgeStyle;rounded=0;orthogonalLoop=1;jettySize=auto;html=1;" parent="1" source="jVYZQ9XUGX3qQfUgJTLz-37" target="jVYZQ9XUGX3qQfUgJTLz-36" edge="1">
          <mxGeometry relative="1" as="geometry" />
        </mxCell>
        <mxCell id="jVYZQ9XUGX3qQfUgJTLz-37" value="Python Code" style="rounded=1;whiteSpace=wrap;html=1;" parent="1" vertex="1">
          <mxGeometry x="38.44" y="308" width="120" height="60" as="geometry" />
        </mxCell>
        <mxCell id="jVYZQ9XUGX3qQfUgJTLz-40" value="" style="edgeStyle=orthogonalEdgeStyle;rounded=0;orthogonalLoop=1;jettySize=auto;html=1;" parent="1" source="jVYZQ9XUGX3qQfUgJTLz-38" target="jVYZQ9XUGX3qQfUgJTLz-39" edge="1">
          <mxGeometry relative="1" as="geometry" />
        </mxCell>
        <mxCell id="jVYZQ9XUGX3qQfUgJTLz-38" value="C Code" style="rounded=1;whiteSpace=wrap;html=1;" parent="1" vertex="1">
          <mxGeometry x="206" y="308" width="120" height="60" as="geometry" />
        </mxCell>
        <mxCell id="jVYZQ9XUGX3qQfUgJTLz-44" style="edgeStyle=orthogonalEdgeStyle;rounded=0;orthogonalLoop=1;jettySize=auto;html=1;" parent="1" source="jVYZQ9XUGX3qQfUgJTLz-39" target="jVYZQ9XUGX3qQfUgJTLz-43" edge="1">
          <mxGeometry relative="1" as="geometry" />
        </mxCell>
        <UserObject label="Circular&amp;nbsp; Queue&amp;nbsp;" link="https://www.notion.so/Queue-71a40e8a61fc475e8999d0143863e646?pvs=4" id="jVYZQ9XUGX3qQfUgJTLz-39">
          <mxCell style="rounded=1;whiteSpace=wrap;html=1;" parent="1" vertex="1">
            <mxGeometry x="206" y="398" width="120" height="37" as="geometry" />
          </mxCell>
        </UserObject>
        <mxCell id="jVYZQ9XUGX3qQfUgJTLz-43" value="" style="shape=image;verticalLabelPosition=bottom;labelBackgroundColor=default;verticalAlign=top;aspect=fixed;imageAspect=0;image=data:image/png,iVBORw0KGgoAAAANSUhEUgAAAVsAAAEiCAYAAABX4nHkAAAAAXNSR0IArs4c6QAAAARnQU1BAACxjwv8YQUAAAAJcEhZcwAADsMAAA7DAcdvqGQAADQKSURBVHhe7d0LeBT1vTfwLxcBEQIBQYNQI4EgEZCbQhIrqDXgUSwt9bTHE6gtXl5FfErt+0o5lgg9pfq+VfpIwUcrp6eQ0vZQKi1aNV4K1hBALnIxSCCIEokaLhqQm0Lf+f53/mF2s7vZzWWc4PfzPEt2Z2dmZ5fd7/zmN7M7Lf7pQJI+//xznDx50r0lIiJ1aen+Tdhnn32moBURSVJSYcuKlmErIiLJSThsT58+rYpWRKSeEg5bVbQiIvWXUNiyqj116pR7S0REkpVQ2CpoRUQaJuHKVkRE6k9hKyLig4TCth7fexAREY+EwlZERBpGYSsi4gOFrYiIDxS2IiI+UNiKiPhAYSsi4gOFrYiIDxS2IiI+UNiKiPhAYSsi4gOFrYiIDxS2IiI+SOjsukePHnWv+aeiogJ//vOfzYXXe/bsaYaPGDEC3/zmN81fEZHmInBhy2CdPn061qxZY27bkOVfO4x4u7CwsOZ+EZEgC1QbYe3atRg9erQJ1ZEjR+J3v/sdVq5caS4M1l27dpnrvI+hnJ+fb6Y5+5Sj8K4cDLt5FlZWu4NEpFkLTNgyPP/93//dXL/vvvtMuNpWwbJly/D444+b67ai5Tic5oEHHjB/61aEWX37om/EZdg1/4opj65A+Ql3NBGRJhCYNgKrVFa0rGYj+7GsdolVrRdDmGHLSpcBHB/DdgoKB+chf1B3d9gJfLRpJYq2ViGl/z341TPTkN3KvcsH1cUL8dBvlqLTv76Agjx3oIiclQJR2bIVYFsHyez4mjBhgpmG0ybcTsj6Ogp+UuBe5mD+n/+Ov9yfDWxfgP/6XSIVcuOp2r4KK1aVu7dE5GwWiLDlEQf08MMPm7/JsNPYeSSvLbLuyMcY59rK8tLQIBGRRhaYypbqc2SBnaZBO8paMXIjuT3egiL3tle0+8qxcKIzbOJClJ+qQNGjU/D1nFBfOGfMHZj1vKdqLluISc7wsY+UmJuFU0Lj9e07y5kzufOquU2e+Z8oxdIHJ+GaKzlODr7+vwtRanrO1di0aAYmXTPMzG/YNZPCH9erqgSFD96Bse4ysnf9w6dLUKWz1os0iUCELXdwsR1Ql1g7whKZNq6Kj8A59zyvY+h2g1Rj5ewpmF/WHTff/xjmPHAL+hxeicL7bsfDxe4oF47G9+c+hoJvZ5mbo//XY3jMuf3Y3JsRGhJPBQrvmoIVGIV7Zhbgnmu7oWL5LEx8cClKnr4Xt/+uCkPueAiPzboHQ9s4gep9XOuQs7LIn4S5xScw9PtznMctwOTh7bDmkUmYOLvIeQYi0tgCczRCPPwSA4OWO9HsUQlevC+xIxKiOFWFol8XYmVqNvLHZ7sDG2DNAizFFCx+0gmwCeNwy+1zsGjBPRjiVKZLl68IBVlKBkbfNA7Z6Z3MJD0HjsM45/a4m4agztp+TSHKR87Hov+cjFtuyse0JxfjofEpqF7uVLRPnY+H/vBrTLvVmdet0/DrR9zHLfJW4E5YP/hjFHafhsUvLMKc229xHjcf9/y/RXj6/myUL/k5FkSGs4g0WCDClpVpvLDkYV6PPPKIuc6w5REIXpw24RZE6V8w66ez3MsPMelrYzHlpe5O2PwKkzPdcRpkHKbcn4cU95YxeDSy+zs1b8VeU0E3jBPgt3rr3xSMyh1lrmXdOhHjUs3VEPu4u/c6keva+lf81cne/In3ICuid5I1Pg95zhJu3KretUhjC0TYXnTRRSYw4/VdeeSBPb6Wh3zZcLbTJHwUw5tFKFxU6F5WYO/Fk7Ho5UWYNiosHutveB9k1JpVClJYxK6vanjYRpl/SvtQhXxZvyHm7xnu43pUbX0Lm5z6+kyf2HP5aqhHvKmy4asEEQkXiLBlm4DmzZtn/sbC6pVhy2+S2UrWTmPnUadb52Pnzp3Y+fY2vPDwLUgpnYt771mI0sbaMdS6bZSdbY0ozvzbJnCMcPXRw86/WbjlJ7ZPHOUyru7OsYgkJxBhy6rUHi/LqjVRHLc+x+cardoiY8IcPHZ3NlC8AA//5sux6RwK5Aq07Wn7xFEuw5M/KkRE4gvMDjIeL8tqlZVqtJ1gkey3x2jq1Knmb31kfK8A9+QCJU89jIXb3YFGR7S92PnzbpQ+a5mnB9oAiVSija1nZhZ6ohobt2xyh4iIHwITtgxa+5Vbhi2/ohuth8teLY9KYNBymmhf701OBiY/MBnZh0qw4JGFnhC9DJexBVq8Cn8NC+FqFC0qROgI2YbpeVGG+fvJUR8Ptho5CmN6A6VL5kasXBw8MuM3SxthJ56IRApM2JINXHt0An+YhqHLCwO2T58+Nb8KZsdtWNC6+t+DaVOGoLp4AWb9xsZtCkbdkO9EcQnmTp6EGU8vxYplCzFj4lg81mo0GuWnDLIyMNr5s+KJH2PBshUo/OkChP/6QxNolY177s9HlvO8Hv7u13HHTxdi6bPOY893j8x4tRr6TR6RxheosCUbovzRGR6BwNsMXhuw3EFmf3qRtxvLkKnTMLl3NUqeeAyFbmmXcm0Bnn48H6M77sLSR2bgh48uRVXmQ3h6ZjbsT9k0SM98FDjzzz65BnOn/xALnC37Jt255krJK8D//OEx5A8Cdq14GDOm/RBz/1SOtrnTsOixyc4KRkQaW2DP1CAicjYJXGUrInI2UtiKiPhAYSsi4gOFrYiIDxS2IiI+UNiKiPhAYSsi4gOFrYiIDxS2IiI+UNiKiPhAYSsi4gOFrYiIDxS2IiI+UNiKiPhAYSsi4gOFrYiIDxS2IiI+UNiKiPhAYSsi4gOFrYiIDxS2IiI+UNiKiPhAYSsi4gOFrYiIDxS2IiI+UNiKiPhAYSsi4gOFrYiIDxS2IiI+UNiKiPigxT8d7vWYjh496l7zx4ndRSj8r6X4a/FGlFZUO0O6IWPUSNw8fgom35SBtqHRRESajcCFbdXzs3B7QSFKD7kDwqQga9LPsfgnec41EZHmI1hhu30BJt08FyXmRjdkj89H3qhuOLFmBRb+sQRVZngKsmf8DxZ9L8PcEhFpDgIUthUovOsazHqV151AfWAxFt2eZe6h6udn4Ov3LXXGclw8Gb9+cTpGtzJ3iYgEXnB2kG39K/5qgtYxeDKme4KWUm6YjPyR7o13l2LVK+51EZFmIDBhW7F+DTa517NysxEetZSB7Nwh7vVqrHwz1GwQEWkOAtNGKCroiylLQtdveXwn5twQuh6maBb6TikMXc8rwOr5+egWuhXdpkLMfKYMmd+YjfGtn8Pi59ei8ogzvE0qBn39DnxrYAdg/0b8adnL2PI+7wA6XJyL8d8eg0znLq+qrc9h+Uubsffj4+Z26/bdkHlDPr5zeaq5LSIST0Aq23Ls3e1exRD0THevRkrviWz3KqpPOPVtYo6VFuLx53aj2/AbMSYnE6mfH8KWpQvwl60bUfjUcuxudznG3DQGuRkdcOTdYhQuWgXvwRCVRfMwb+laVLXpjdy8G3Hj6BFIa1OFyspQ8IqI1CUgYXsCJz53r6Id2iay46uyCh+5V+uy953PMfbeqfjWtSOQOzYf0yYOgxOr2LB0OfYNuA3/57tO0F6ZizHfvQdjLnYm+GAj1lWGpgV2Y93GKqDzCHzv3u9gzFUjMOLaG3HHD2fijhxVtSKSmICEbQWq1rtXE/XuCRx2r9al3aCrMdTbFsgYiH7teaWXU6n2NoNCOmBY/17O30Oo+iA0pMbJYzh82r1utEaHlHbudRGR+AIStm2AZIvE/inx+7UePS7yBiqdi3bMyc490DsiL9ude657zeqNKwc7j3R0Cwp/WYgXN1fieFjoiojULSBh2ws9+7lXE9UpJeFvkbWO9SxbtnavxJc29m5MvSkLqUfLULzsCcyZPReFr5YhtEtNRKRuAQnbFLStSc63UGG+uRDFngr322WOi3vBv++QtUa3K7+DaQ/OxNQJuchMOYSylYV4fGmpe7+ISHwBCdtuyLi4p3u9GuW7y93r4crfOzM8O/2L+LquE7qXj0H+D+7GiC7A8bc2Yot7j4hIPAEJWyc8B4+uaQuUvFES+lpuGKeqdYaHDMHIEX6F7REciTzGrGUqOnd0/rZu58SviEjdAhO2uG4UbuFhV/TqQix4Pjzhqp9fgIX267zX3oybB7rXm1wZlv9iJv7vk3/Ai6+vxdp1r+C5Xz+OF9916vHhuVG+6SYiUltwwrbVaNxz7zi3uq3A0vvGYtKDC7H02aVY+OAkjLU/QpOajek/yIdtOjS9S5B1eRrOOVCK4qLn8Nyzq7D5cEcMumkq7h6b5o4jIhJfwH7Pthqbfnkvbp9fEv3bYalZyP/PxSjI06/ZikjzErgfD6eqNYWY+/RSlGwpRcUhIKVnFobm3oxbvp+PvN46T4OIND+BDFsRkbNNcHq2IiJnMYWtiIgPFLYiIj5Q2IqI+EBhKyLiA4WtiIgPFLYiIj5Q2IqI+EBhKyLiA4WtiIgPmm3Ybjy00b0mIhJ8zSZsn9v3XFjA3rt+StjtheVPu9dERIKn2YTtm4c24Wfb/tO9FY7B+7d9f3NviYgET7MJ2+/3nmz+RlawlccqTYX7HwMedIeIiARPs/qJRQYrpZ2bZgJ2aOrQsGEijaMSL/7yCRQfdK52ycXdPxgDvbsSs3HxTCzHeMyeONQdIlagw5btgSGpQzA543Z3SCMpmoW+UwrdG2fkz9+Jgjz3RnNydD1+u+l+PNlmFlZfMdodeMbJT4owb9vjWHn0AA6gDdLbj8GdA2dgdMQJLxIdrxbn8X+/9VEsq96Dfc7NHm1yMKHfQ/i3C3lWTI9ExjvmjLPl51hSvQ8HWvRAXo8f40dZw9HBvZuOlN+Pb+5Nx2NXT8WARt82c4O2qwKjRuWLmPtEMbp9Yzbyh7jDYmissK18YS6eWH3IvWWlIvfuaRjTTNd8gWojsEplm4B/bXtg4e6FTbTzKxvTn9uJnTtDlxceyEbhlL6YVeTe3eiKMKtvI8//9AFs2PFj3Fk8FU8ePekOjHDgv3H/ugIsO3oY6SnjkHduW+w/ugIz1hdg5TF3HEp0vEjHVuLRNVMxzwnQDuflYdx5PXDi5GrM23ovfn/AHYcSGm8flm1yxjk2AFOH/B5P9cpE2ftT8Yvdh937HcecFcKeHRiX2RRB66jcglKnos0coKCNiwE8cy5eDG1YNh4z35l44u0s3D17NmZ7LuP7uuM0U4EKWxuurGhp2VV/Nn9jBS7H+9lb4TvNON6Ef3wz7EiFRGTcXoDpI4HC4iZL28b1yRLMePUmTH1vJfa4g2pzwmvHk9jgXMvr/SzmjZiBh65ahhmdnEryVBGW7NoWGi3h8WrbsOMXWHYKGHDBr/HfObPw45xleLRHpnNPGX6zawWOhEZLbDynsl75KTDhklnIOz8dA/rdhXHtnNXUAS5ZyIYdj2Nr5x/hez3cAdL00sZgmhN2dVW1DbcRhU4FjZy7MTtK62boxOZb1VKgwpY9WNOHPV5ZZ+DaQ8EiDwnjeJx+08Gz/DjcfzqV7DnDcVuf3+NXFzG0ovi0BBuc8ELLb2Fcht1U74jR6ePAKbYdLHaizpHoeLWsxuoDLEuHY0zGgNAgR2afb4HdmCPVq7H+NIckOJ5paGWiRyf+pXSkOWFb46N5ePLAQNyZNTqsrSBnh42Ll6OsSy6+c5aetTowYWtaB05I/sdlDyYcuJHszrL6KUfFGiC7V4Z7+4yigr7o2/fMpXYrINQi8I7Tt+DMSKHpp4BdYrYqwu8vx8KJ7jD3Munpcve+ODrfhjmj5uHOS9LRxh1Uy/4tWMm/52WinxngOr9f6PbJfaZ3mvB4kT4uQxlDsrUz3XmhQUbbfrjELNQ+VPI0yYmOZ1RiP4Pf2OO8D4AOfJeeLsNvdyxBj/QZGH1u6N7ksBc7EzOdTdSay+LwFTL7jTOdyoqdwrJnQuMUbgrdF4k9xZkzC51aLMKmQmd4xOa1GeZ53FrTORVdAvdzWcwycpyaZY+cNvYyR102+7r88kXnmocZ110Od9M+NF93fPM6HULxE6HHnPtCxGfPncYuU637a9mI0p3OqnbU2bszMjBh+19OkPI42r85lWpdgcvWwfNRjqvltPVVVOCE4cjpKLjdG7ahIJyyezpecHu7O+fn1+rtlj/txOj8M/3fnc9NR/aSKTWhmTeLw+cj37nOnXBmnFms6Tj/sXi49/ywaWvHff3sO+o2GFp1DK8EW7ZxA9oJs48TH6+WI/uwg39bR0znTNXGvLPKsO8T50+i43UejZx2h7HinXnY8MkBlO16EiuOd8W4tNHYs+Nn+FOrH+HOmso7CeaD7+70qukBjkfmzuVhITN0ojP87lykOtczvxEar8GbzgytZ6qQe7d93Ijeo1m25ajipnPN/WVYHiXIq1bNRekAdz5mBxSDNnza2d+IsZVDQ7Kc7YZDKN3sDb5KVPGoi4Ol2OIZvHGbsy3TNwu1O9dpGPMD53HM68QdVqHHneatRvm6/hH4jmeZDq1+IvZKgDaVOu+CVHS70L19FgpM2A5OHWLClV9OiBa4DGMrsnVgbToU738zUgkevvFMNTllSTam/2RyeNAVFeLhNRHD8wow/1anQl280InKkIzbF4UfxZA5GfnOOCV766pQQ9V0fq5nYmfa8MCvv5N1HmcSkuh4tZw6UdOTjSvR8ZCOfxv2c3wLK/DjdTfh3nf3YVjfpzC14zI89T5wa9Y4HNlxP257ORs5L2XjW68/ipJ4O+9cG192qrC+kXvIhyKfgXGwGK8k87ZJUuWHVUCXLAzyZNHQifk1IWaWLWLTeehEZ0XgRM+qiGrwUNdR4eFfWYUqJ6CyLvfMfEh+nBXEUGQ5QX/o7S1nqliGXJdMZHY5hKoP3GG2yqz3TsJMjPf2XIdch9wuzip1W+3P7JdJYML2xh43YnLvyTEDlwHbuMKPRtj53CisYvh6N/+LnYr11nxMjigWMnplA2sqasI2JLwdMGWJM2j33ohxImWgJ3fKTZmEhdGbok2vhfu3LomOF6mV+7cudrz2o3HnVUUour4ERdf9Fvend0TRW7/A4bT/wLhPfoYZ7+1AevpvsWLIjzDg5J9Q8OYyeA96qC1OcKQNQlYTh0DaBd2cqrEYT0S0LEJibTqnoZuzXIeqwsM2tVv4WEjrhm5mUz5KOyOGoQOcN/PBqpqwZQWbeul1yOrqeR3cEK93lVmrInaejzN/HDjzuF9GgQlbhimPp40MXN++rOBUlIvmOxv6Swrd4CvH3t3OnyVTagLUXsY+UsIRaoR6smOxatQLNeHN6rduGZi8mOOeqbIT6tcmKL29u8ueO9O8Tp9EaEg60jolPl4tHXrA7O46fcIdz3KmMzvGMtGDfYNEx4viyJ45eOr4rbirfybWf1iEfed9D1P7ZKLr+RMwtedwHDmyGhtOuCNHY4LjC+RUmmaTm5vWpn/pCUZ32Wx/+MzF/UJFhG4XRH4WnOp89t1O1ci2Q2jauJvqZFoJZSg14zHsQ5WxCeGdpWbZKjeXOtV2eDXe5C7s5sS7t7o++wQibBm07MPykC1v4LI/2/gVbRzpPZ1618pAr97On1s9/dSwS4HZk84vSJgWhFMlL6rn5n+op+tcnLAveWRsWHXdIJ37YRj/froDYQdv7d8R6qGeNwgD+TfR8SKl2h1oZdjjDbwTO/AOU7XlIGR2dv4mOl6k06vxm91bkd3nNgxouQeVnPacrmCRRF3bOuUf9uNAvFaCqf4an6lYE+UeOjW7JhjdnVTustn+cK1LQl8McHuozvh356Sa4I6/MypUNZsq1rQQ3FA1IeyEf2Ultrx9yKl2B0VU203Mh62ML1ogwpatgrR2aSZgbeByWKLsuN4+7oX1qYj3VMBbs5p2wRJnc9a9nbgilLCNkKy8AvPlirrbDwnqPBzDz3H+fr4CK/bYLwYcxso9K5zaBhh9fnYouBIdL1LLYRhovl22Git2nemDlO36k3nN0rtmh0I80fEibNs2D6s63Ie7enKnmBOyXMZTh2v6vwdOsPxzqu6433DzhEukBn+BgeHkXnWZHUsxMRjZj7UVXJxlq4e0sdPMzrfI9kO4NAy6NNVs0r9oWgg2VLks3Hm2BVUHI/rAvnBem1GsrpfXXZ03U4EIW7YKfjV8fljgJvqlBPZ6KXJ8OzxhZQsxiV/h9fRoM27PRz4KMWXimZ1hhlPN1hyNYKrhEqx67cwY5sgG9/oZbn827EsTRZgVVsWWY+UqJ+579zqzQ65BBmBCn3FOHB3Gip3OZvfaOXjo9QmY88lhdDj3LtzWx34zILHxjlTMwW0vZWNc8RL3ixQdkdfvLhOUG/bdgdtWF+Dnqyfg/n1O4LTKw539csxYiY/nceBJPPlhD9w5MM89gqEjcrrloMPhJ/ELJ7AP7F+GeRXrkd5tDEbHfRc7H+Jvu5vxYX3T0AH03HFWryMO3D37xX/0HDK1qRDLd7rXXZUvFEYcBubd634mYCKr0Y2LE+jDVr6IwrDpQj3gWr3dCGmXZyH1YClKD3hDNRTCh94uRVUiLQS3Xxx+ZEMDDcmPU53zkLMm+MaajwL12wg8TpZHHjBwE8WWAyth24ogBi13rsWU1G8juIdnrXFv0sjpeGGx5wiFiPlxPtnF7iFjscZje2IWMMs9/raGGV5rIeLaU/pd3Pq+E1ydfx71txEOVP435pUtweqTTlXYoityutyHey/PQ3rEzqu6xmPY3rt9BQ60n4p5ubc64RwS/psKHTEg5VbcNfA2DGvvjuBKdDweavb717+Lrd1/jzmZ3q+KHca2rTMw58P12PNPTn8XfnTFBGQmVDKEDpPy1p2pOXeHH7JEPBQrwd8BsOPWfIOfRzwMKHUP9Qp926n2d/yjfL8/cj6O8GULLTsil6nO6WJxf/8BET+yY+cXeeRGjNfE+9zs48b6bQQz/ECiP+pT+//KaOY/ChS4H6JJJnDZPmBFTJyG1S2rY/7cYjJtCBGRphaINoKXt6UQD++3Qctvldk2goJWRIIosD+xyAqXh37xiAQvhuy/9PiXmp9dZMjym2ccNqRL6LcVRESCpln8eLj93QSKDFOGrQJWRIKuWYStiEhzF7ierYjI2UhhKyLiA4WtiIgPFLYiIj5Q2IqI+EBhKyLiA4WtiIgPEgrbFi3q+zP9IiJCCYVty5YqgEVEGkJhKyLig4RStFWrRM/aJyIi0SRc2SpwRUTqL+H+wDnn8ARQIiJSHwmHLavbNm3auLdERCQZSe35at26tSpcEZF6SCpsiWGrCldEJDkJ/Xh4NKdPn8Znn32GU6dOuUNERCSWeoetxdBl4PIvLw2cnYjIWanBYSsiInVLumcrIiLJU9iKiPhAYSsi4gOFrYiIDxS2IiI+UNiKiPhAYSsi4gOFrYiIDxS2IiI+UNiKiPhAYSsi4gOFrYiIDxS2IiI+UNiKiPhAYSsi4gOFrYiIDxS2IiI+UNiKiPhAYSsi4gOFrYiIDxS2IiI+UNiKiPhAYSsi4gOFrYiIDxS2IiI+UNiKiPhAYSsi4gOFrYiIDxS2IiI+UNiKiPhAYSsi4gOFrYiIDxS2IiI+UNiKiPhAYSsi4gOFrYiIDxS2IiI+UNiKiPhAYSsi4gOFrYiIDxS2IiI+CGzYLl++HB9++KG5/tJLL5kLcRjvO3LkiLktItIcBDJsGagMUxu2n376qbmQvc/eFhFpDlr80+FeD4Tdu3djy5YtJlA7dOiA8847zwSsvc6Q5X0XXHABMjIy0Lt3b3dKEZHgClTYMmhXr15tgrUuto1w/fXXm+Cty9GjR/Haa69h//79uOKKK9CvXz/3nti4PG+88QY6deqEq6++Gu3bt3fvERFJTiDC1rYFWNGyis3Pz3fviY3TsHfLoB00aJCpeuOFtDdsL7roIuTm5qJNmzbuvbWdPHkSxcXFeP/993H++ecrbEWkQQLRs3355ZfNDjDbLrAYqKwuvRfbx7Xj8Tan5TwSwXD++OOP8dFHH7lDouP91dXVpqoVEWmoQIQtK1NevEHLYGXlyraC92JD2eI0nDY7O9sdEl/btm3NNBUVFTh9+rQ7NByH8/6UlBR06dLFHSoiUn+tHnK4178wqamppuLcu3cvPvvsM1x66aU4dOiQuW2DmDvDGJIM2gsvvNBMw7YD/+bk5IQFdTSc77vvvouOHTuaad577z107do16nSsardv3252vnG6Y8eO4eKLL8Y555zjjgF8/vnn2LlzJ9atW4e1a9ea66yEO3fuHNaeKC0tNSsJhva+fftQUlJipuHzYJjbHYAcxsuOHTtw4sQJ07po1aqVO5czPvjgA6xfvx4bNmzAxo0b8c4775gWCR/Xu3wc9sorr+DgwYPm+bL3zOXgc+HjHD582LRTInElU1RUZB6byyAijSMQlS0DyHtcrRdD2F6iBSN7vZyW80gUQ6Z169amHxsNh7dr186EDcMpEivfN998E9u2bTPjsP/LlQFDmoHGIIu0a9cus/LgiiQrK8u0SBiArOAZnAxL7rjr1q0b3nrrLTNvLz4mh61atcqE8WWXXWZWMt27dzfz/sc//hH1cTnd5s2bzeNwxXHuueeaZWYIRzt8js+BK4C0tDR3iIg0hkCELT/c9WWPSrB/E8FgY6gx3FmNevG2rZ5ZBUfDcGOVetVVV+HKK6/EJZdcgsGDB2PkyJEmnFnlejEEGXQcv0+fPhg6dCguv/xyM5yBywDmMFbSnF+PHj3MMnjDkBUtq16GOo/A4DQcn+0TXjguQzqyNcItBA67+eabzY7HAQMGmID+5JNPcODAAXesEM6DYcuKn1W3iDSewPRsx48fb6rXSAydyJ1jXpyG0zKAEtWyZUsTkMePH0dlZaU7NISb0WwRsG3QokULd+gZPEqBlS/DOHJ52SpgUDGwOZ5Xr169wtoLrC4Z5gx97+a8rahZvdqqmmHJtgePhsjMzDTL78XpWYmyWo1c6fC59O/fPyw8OS5vM8C9GLQMXIa9iDSuQIQtQ5T9V28lZ6tdDrc7x8rLy80wbyXMaTgOwzgZDEWGGitUG4zsczJIGYCsfqPh4/FSVlaGwsLCsMsf/vAH7Nmzx4Q4Q85iqEZWyWxjMDT5XLjTzov3eTF4WQVzHtEOP+N8uLxc/siwZahGPjbbMezjelsJDHT+P3CFwcpXRBpXIMKWRxgwML1BwaqR1Sr7kt5L5JcYOA2n5SUZDLSePXuawLHVLcOGVSmHR1aP1qlTp8ylb9++pi0Q7cJN9chjeKNVyRRruBcPheZjcp6RQWwxhCNDntij9e44Iz43PkcGLatZ4uvI14IroHjHH4tI/QQibG0bwIaoDV3eZl/Se4k2DqflPJLFVgCPo+UmOoOKLYS6KjuGIy8MrPT09KgXBlmsUKwvPiYr8MgwtVj9MnATDUrbl+UKhlUtv+zBQI92hIKINFwgwpabtQxN9m4Zojy6IHITPfLCcYg7jGwAJ4tVH3upDBq2IVjZsVcbL7AYaJyOm/UMOD9wedhu4GOyVRCJYcmdXVyuaG2GaDguVzbcgcadZWynsKqN1T4RkYYJRNhaDBS2Cmx42hC2eN0e/sW/HJfVbkNwZxF3SvF4WAYVAygehhRDqaqqqqaH7MXqmAHWmFglc6Vge8UMVy/2mdkK4bIncxQBK3hWy6zs+a06Th+rfSIiDROoTxYDlOHJCpd4nS0CDueF12248nCnhgYtMZwY4mwjMGwSqQx5+BY3w7du3Wp+b4GHgjEE+SUCftGAm+ONjWHLIygY8Oxxv/3226YaX7NmjfmSApeHx94mg9OwbcKdetxJV98tBBGpWyDLGHu0gf3w86/3OoPXe0RCQ7FPyWo10X4l9+7zh2l4GBarWAYeg5ffuuJxspxXY2PFyWNxR4wYYR7HHqXB1gd3yLHKT3bHFitmrmDYnmDwJtqCEJHkBe73bMVf/KIEWyje9o2IND416L7E2K/ljjG2EngRkaajsP0SY9CyDcF+cOSxuCLSuNRG+JLhoWPcycbjdvmXFS1/00FhK9K0VNl+CbGiZa+WO8f4S2MKWpGmp8pWRMQHqmxFRHygsBUR8YHCVkTEBwpbEREfKGxFRHygsBUR8YHCVkTEBwpbEREfKGxFRHygsBUR8YHCVkTEBwpbEREfKGxFRHygsBUR8YHCVkTEBwpbEREfKGxFRHygsBUR8YHCVkTEBwpbEREfKGxFRHygsBUR8YHCVkTEBwpbEREfKGxFRHzQ4p8O93qgfPbZZ9i9ezf27t2LgwcP4uTJk2jTpg06deqESy65BJmZme6YyeO8ysrKsHPnTlx00UW48sor3Xvq1pBpReTLK5BhW1lZiTfffBMHDhxwh4Rj0NYn5A4fPoxdu3Zhz549+PTTT82wROfVkGlFRAIXth999BHWrl2LTz75xNzu0qULunfvjs6dO5thDGBeTybkGJBbt26tmadXXYHZkGmjeffdd83KpG3btsjKyjJ/42ElvX37dhw7dgxpaWm4+OKL3XuAt99+Gx9//LF7K6Rly5bm9fnKV76Cdu3auUNF5IsWqJ7tkSNHsHnzZhNs5557LoYPH44bbrjB/O3Tpw+GDRuGvLw8czsZR48erQnLlJQUs/mfqIZMG8+JEydw6NAh91ZsbKEwaGOx4cqVEi9stXAaBvTx48fdsUTkixaosH3nnXfw4YcfmuuXXnqpubRo0cLc9mLAJIPz6NGjB3Jyckx4X3DBBe49dWvItLG0atUK55xzDvbv349Tp065Q2vjfRyH48d6zrzP9rB5GTx4sKmAGeacVkSCITBhywrygw8+MNcZaAyQxtK/f39ce+216N27twm5ZDRk2njOO+8885zZC46F93Gc1NTUqCudWDg+QzhekIuIvwITtuw92s31rl27on379ub62coGIvu30drmHMb7GPA8AiMZDOjTp0+bQBeRYAhM2FZXV9f0GDt27Ghul5SU4JlnnkFhYaH5W1xcnFCfszngziv2gNmntkc3eHEY72M/lhKpUhmwbB3s27fPhDl7uCISDIEKW4uV2apVq1BeXl4TRPzLnu6rr75q9ug3d2wLdOvWzVSwVVVV7tAzOMyOEw+PR960aRPWrFmDdevWmdeMAc0disn2tkWk6QTy08hDrbgHnn3SkSNHYsCAATUVHofzfu5xb+7YHmAVzxYKd2hZrPBZwfP+Dh06uEOjizwage0XHj63ZcuWuEcxiIi/Ahm2POxrxIgR5ggAVmjcw37dddeZowKI4fT++++b682ZrVx5LK23PcJWwOeff15nVUuRRyMMHDjQHMVhv4GnnWQiwRDIsOWxrL169XJvhTCA09PT3VswO9MYSM0dq1c+N7YN+HwYkqzaWaGy6q0PVrq8sLJVdSsSDIEJW++hTdxxFK3fyPCxAcSKLWBffqsXHm3AzX/2qe0RGQzI888/31St9cUvN/D14U4zEfniBSZsvVXc2VCxJoPtAoYje6288EiFhh5JwNYEV2DaSSYSDIH5JPJQJXtcKH//gGERiZvX9ksA3PRuzC8ZfJH4+wjc7Odz41EZPM6Y4VtfrJB54WvEi4h88QITtgwYbjoTqzv+hKG3TcDNa3vIFys/u7OMeDzqypUrsWzZMvPjLM0Rq1tWobatkCi2U3hIHH/2kRceqcHXgPNi37shrQgRaTyBCdvWrVujX79+pp3AnUTbtm0zx9SuX7/eHEPKMGUIE3egecOWe90rKipMr5M/g9gcv/jAqp6HebFfncy359iTZRXLqp8XvgYM68suu8zMS0SCIXA/scjqdePGjVG/VUX8icErrrgi7OcDeUwpL8TN8dzcXNOWiKW0tNQ8BiX7M4kNmVZEvrwCt/eEYXr99debY0XtTjP2HVnNfvWrX8VVV11V63da+eWHnj17mvF4XG68oBUR+SIE9rQ4IiJnEx0XJCLiA4WtiIgPFLYiIj5Q2IqI+EBhKyLiA4WtiIgPFLYiIj5Q2IqI+EBhKyLiA4WtiIgPFLYiIj5Q2IqI+EBhKyLiA4WtiIgP9BOL8oXiyT23b99ufiyeZ6vo37+/OWuH1M2eAoq//SzBF5iwfe+99/Daa6+5t864+uqr8ZWvfMW9FWx8DuXl5TWnp+nUqZNZ9qysrLCTU+7fvx/FxcU1J6+0+GPpPMuEPRdbJJ4uiOdm27Nnj3kM/lj6BRdcgAEDBpgzVFg8fdCOHTvM49gQ4/nIuBzeU+7w9OmbN2/G3r17zUkneeYJnprIe0ZennKIZ8/Izs6u9aPtDWWDlq+NAiOEJ/zk/116ero5L108jRW2/P+trKx0b4Xw3HV8L+jUSo2n1UMO9/oXiid0ZIBce+21GDlyJAYNGmQqHJ5/jEHC4GpsDJtXXnnFnMm2MebPDwlPPnnhhRea+fE5vf/++zh+/Lg50wRPLU48Zxjf4Aw4e84xXuyJLGOdEZen4+Fj8H4+Bs9A/OGHH5r5de/e3cyPOG8O5zCej4zPc9++fWZ50tLSzOvKoOP53RjGfL0ZyAw+ztue6YIrA55AktVmU5z9gq8Vl5PPmY8vwIkTJ8zZpfmet68JA5jn5OM56uz/MXFlSrFWznXhfHk6KZ409PLLLzeFAc94wgvfM5GPJw0TqLD94IMPzH+4rb74huMbgm9AhlVjY6XIYGIF0Rhhy3BjNcBlZSXJDwGrTAYbh9nqliekZAV8ySWXYPTo0ejbt6+58PQ+sYKW+CFk8A0ZMsTMn9Pz9WFVwteKZygmBiOXg+Pwg8PH5oqMHyCGNF9fLgPPxssTQzLs+PztKeTta83zrXEFwGWzK4rGFC1YvuwYbnz9va8HXyf+//H/t7HClvNkZcz3PrdovFszFPlY0nDaQdaIvK0CYqixao4VVKwcksF2gfeswpy33dTkisNi5ep9TH5oeOEwO5zdI45nV2xcdm/Qc8XHD3i0D6I0fzz9Pd8/dsUqTS/QlS3XvqwAGSiR/at169bh73//e82ZdSNbDbZFwDaEHcduzhOnf/311814rG699zO4eB8vdloGU+QyxMP5snLgc2Jl6A1JthZYjXKTPpl5Rgtt9lurqqrMckercFipss/L8VjpsnrmfLh8HMZp2Mrgc7YfQC7Tm2++aU6+yUo4Wazk33rrLTM/nmKeF7YMvMvH14aPz9Bnlc1xuEKIVuHy/4fvA1Zb/H+w+LxZfbPXbaswDmPrwz4u2xTe6fieYp+a/fV493Plw+XjqfHtskdOG2+Zoy2bfV24tcPHtCsxjsvXg8P4/8L3G/8fOB3HZwuIp6zneHxMbvbz/W4rW47Labi83vtj4fPge5DvGXtSVWl6gQ7bTZs2mb+DBw82DXuyQcg37g033GA2qfnG4s41b+AyYPhm4hl52f9l2PHNzzctw4T38Uy8fAMPHz7cjGeDdvXq1abK4/zttHyD8sMQjzek2f/kY3HZ+TjeoORjMmx54YeEQcLeKUOPH5xE8UPLx+GmPtsL3srUroz4YeW8uXOMF/s6Mkw4PYOOrxk/0PywcmcLl4shzfGTrWptf5HLwufONgZfb3642TKwIWNDntUzVwBse8RqJfC9wRBim8YbthzGfjXnxWDi68qdh3wtMjIyzGNzBcrH4XRcNr4HuDzcSuD9HMZls4HLoOLrwoDlzkculw1aPi9et9PaEI223JwXl4fP1QYf3x98bfmXr7mdnq87/9+5YuPj2NYKg5DLwOXn8+T/DZ+XnR/DlsP5OgwcONB8djhPrgz4N9bryf9zXjhvuwzS9AK1fcgdMi+88AIKCwvNhW9M9hS9m+ccxjeYdzjfZNzcZSXFNzIxKDjc4oeElSQ/RPFweh5J4K3oOC3nXxcGKj/I/IByej4WVxgMfi+GsA0YjsfbrGxKSkrqXD6LHxbOmx80fgC5I8yLt/nh5AqEKyZWZAwLPhbxtRs6dKi5XlRUZHa8cScJg5vVEatxrgT+8pe/4I9//CNWrVqV0LIxtBkS3j3k/EBzfgw+LndT4WvB5bcra+LrbAOFy8b7+ZpY7HsTV/ReHI//lxZDkLw7Cnm/dxwvG3YMc77+xOtc2fG1t/PjX64M61qRx8J58b1pV0JcPj4uA1uCJVBhyw/p2LFjkZ+fby48DIqHSLFKs/ihYGgyAL3Y/2RI2rAlXmdI2PDmDqHIcSLxzcuqjEFmN9MSxTc8Q/6KK67A1772NXPhvFhdcnPVYmWUk5MTNh6rNo7DlUldGBp8XbjSYWBHO/SH1TQr9muuucZU6AwFBio3yS2+3qNGjcK3v/1t3HTTTWblxHFYyTO4WDXz+XAeDEpW4TY4ookXHAxABlhThgAfg4/PTf9Idtm4crPBRAw/VpV8X3h5txLIBjZXnDYo68LXgVsIrJaJz51h6H0d7LzqW2EyWL3T8rnxPcz3eLz/K/FfoPd8MFDZJmAAMfhs1cnQtAFqLzwsyosBzYqMIWPDO5HqlG9UBhAD3VbZ3PSsD1aXDFF+yOOFDDcpuVlKdVV+3ExmBcwPKTfTealrU58hxPnz9eOmbSzc/OR8WSlzpcbXn5UfnwMrRLvJGguntZXzF4H/11w5cAuJvfoNGzbUhJldNlbrvM9e7OFvkbzVMTHQWPkzmLki5rTxXkvi5j+xouXjc4XFsGUI8zE5jP/fnGfk4zUlG872tRF/BDpsiW9C28e0VSdD0wao98KqmOMzNBjQvM0PX31ceeWVZp78UgWD3FtdJ8NbRcVjv1sSb3xWtAwQvh78kgGr2kTZXm0sXInxCwwMVY7LYODj2OXhB5RhzUotFo6TbI83EckEEQOOWwys6rn8rMYZdnbZuCLhccWRl2hbB5H4WrA3yvG5MmZwe7cUItmqmSta20Lgc+Ey8joDl8NtT9kvXIam3sqQ2gIftqykvB9wtgvsMaPJ4PicLlnctGZvs672Az803lYB8fEYkNzUs5vWrK4ie5/cAcSdNFyZeHuCXtwk5IebocwPvPfoBi+GJHuu3i8G8rkzFDj/WD1Gbh7ztWUFbEOCm7+2UmUVxMCK3Lz28oZLJC4Dl62+vUkuR2QlFi8sGF5cKTNgOV28ZasPHqnBHVWR7QcvLgOD1G5R2FDlsvDCZeFrHOv/vKlwGdhO4ZZKXdW5NJ5Ahy1bB9xk8/Zo+TVGeuONN8LCj9UsL2QrIe5VtrhzKLIHaytl784RhgKrIct+UDgex4+FK4S1a9eanU1cNh4dwaMBGKQMbBty/HCxOv3b3/5mqmWO9/LLL5tlZdXFDzExkDn82WefNR9KbhpzXpyez+X5558Pu3CzlsvKULL3c/48suLFF1+sOdTHu3PI4mNzRcFKmeHEC/dUc+uAAc/7WfVyWKw93MQPMZefy8odfhbDjmHOHnGssI+HIcVl4grD9iH5f8Kw8OJKhis9i9f5enAl4Q2YyGqUz62uTWrOi/O3OD4r03grH2KQ8r3Biw1VG8KcJ1cAdVXuXH5qzJ2L/H+IVZ3zNWbrzPtaSsM1y99GYKgwRHjIjMVjSLnTyQZi5Pw4H4YqK5FY47ES4s4r3vYGM4ezrRAPl4lvUH4gbR+OPVvuqGIA2UO/+EZmGPINzlDicrBny94ow5YfRGLYMkBZDbJlwP+maL+nYNnnz4qJwcYjMxjOFG3+Fpebj8Mg9fa0GVLcQcb+OK+z4mX/nM+rLgwiPkfO2+IH265ILH6YuUMukd8BsOPanU2sKlkls4fNlQTDi6+pdwcjXwt7nxU5H/Ium1127wqS6pouFv5/83Uk74/s2PlFHrkR6zXxPjf7uHaFFtkC4XC+9t7HiyXa/xVxpZrI9JI4/eqXiIgPAt+zFRE5GyhsRUR8oLAVEfGBwlZExAcKWxERHyhsRUR8oLAVEfGBwlZEpMkB/x9pU52kqx/TIwAAAABJRU5ErkJggg==;" parent="1" vertex="1">
          <mxGeometry x="187.63" y="462" width="156.75" height="131" as="geometry" />
        </mxCell>
      </root>
    </mxGraphModel>
  </diagram>
</mxfile>
